# xmcd
#
# Track frame offsets: 
#        222
#        9697
#        18757
#        36792
#        52915
#        74695
#        91712
#        114127
#        131537
#        151240
#        168055
#        200657
#        225542
#        237110
#        251115
#        264347
#        281740
#        302015
#
# Disc length: 4244 seconds
#
# Revision: 1
# Processed by: cddbd v1.5.2PL0 Copyright (c) Steve Scherf et al.
# Submitted via: ExactAudioCopy v0.99pb5
#
DISCID=e0109212
DTITLE=The Blues Band - Live ( 2000-BGO Records)
DYEAR=1992
DGENRE=Blues
TTITLE0=Come On In
TTITLE1=Hey Hey Little Girl
TTITLE2=Death Letter
TTITLE3=Grits Ain't Groceries
TTITLE4=Flatfoot Sam
TTITLE5=Don't Lie To Me
TTITLE6=Can't Hold On Much Longer
TTITLE7=It Might As Well Be Me
TTITLE8=Nadine
TTITLE9=Big Boss Man
TTITLE10=Maggie's Farm
TTITLE11=Treat Her Right
TTITLE12=Find Yourself Another Fool
TTITLE13=Big Fine Girl
TTITLE14=Someday Baby
TTITLE15=Rolling Log
TTITLE16=Greenstuff
TTITLE17=Boom Boom (Out Go The Lights)
EXTD=
EXTT0=
EXTT1=
EXTT2=
EXTT3=
EXTT4=
EXTT5=
EXTT6=
EXTT7=
EXTT8=
EXTT9=
EXTT10=
EXTT11=
EXTT12=
EXTT13=
EXTT14=
EXTT15=
EXTT16=
EXTT17=
PLAYORDER=
